/* XPM */
static char *_b13c41f77434b4debb20e4c81697f6cBID9CtNsbPmbyF5R[] = {
/* columns rows colors chars-per-pixel */
"100 100 24 1 ",
"  c None",
". c black",
"X c #020804",
"o c #0C0806",
"O c #092C13",
"+ c #465C78",
"@ c gray50",
"# c #880015",
"$ c #82563D",
"% c #FF7F27",
"& c #B77857",
"* c #B97955",
"= c #B97A57",
"- c #23B14A",
"; c #21B14C",
": c #22B14C",
"> c #B5E61D",
", c #9C8E76",
"< c #577294",
"1 c #7092BE",
"2 c #00A2E8",
"3 c #EFE4B0",
"4 c #C3C3C3",
"5 c white",
/* pixels */
"                                                                                                    ",
"                                                                                                    ",
"                                                                                                    ",
"                                                                                                    ",
"                                                                                                    ",
"                                                                                                    ",
"                                                                                                    ",
"                                                                                                    ",
"                                                                                                    ",
"                                                                                                    ",
"                              %%%%%%%%%%%%%%%%%%%%%%%%%                                             ",
"                              %%%%%%%%%%%%%%%%%%%%%%%%%                                             ",
"                              %%%%%%%%%%%%%%%%%%%%%%%%%                                             ",
"                              %%%%%%%%%%%%%%%%%%%%%%%%%                                             ",
"                              %%%%%%%%%%%%%%%%%%%%%%%%%                                             ",
"                         %%%%%.....XXXXX.....OOOOO@@@@@%%%%%%%%%%                                   ",
"                         %%%%%.....XXXXX.....OOOOO@@@@@%%%%%%%%%%                                   ",
"                         %%%%%.....XXXXX.....OOOOO@@@@@%%%%%%%%%%                                   ",
"                         %%%%%.....XXXXX.....OOOOO@@@@@%%%%%%%%%%                                   ",
"                         %%%%%.....XXXXX.....OOOOO@@@@@%%%%%%%%%%                                   ",
"                    %%%%%.....::::::::::----->>>>>>>>>>@@@@@@@@@@%%%%%                              ",
"                    %%%%%.....::::::::::----->>>>>>>>>>@@@@@@@@@@%%%%%                              ",
"                    %%%%%.....::::::::::----->>>>>>>>>>@@@@@@@@@@%%%%%                              ",
"                    %%%%%.....::::::::::----->>>>>>>>>>@@@@@@@@@@%%%%%                              ",
"                    %%%%%.....::::::::::----->>>>>>>>>>@@@@@@@@@@%%%%%                              ",
"                    %%%%%.....:::::::::::::::...............ooooo@@@@@%%%%%                         ",
"                    %%%%%.....:::::::::::::::...............ooooo@@@@@%%%%%                         ",
"                    %%%%%.....:::::::::::::::...............ooooo@@@@@%%%%%                         ",
"                    %%%%%.....:::::::::::::::...............ooooo@@@@@%%%%%                         ",
"                    %%%%%.....:::::::::::::::...............ooooo@@@@@%%%%%                         ",
"                         %%%%%...............====================&&&&&.....%%%%%                    ",
"                         %%%%%...............====================&&&&&.....%%%%%                    ",
"                         %%%%%...............====================&&&&&.....%%%%%                    ",
"                         %%%%%...............====================&&&&&.....%%%%%                    ",
"                         %%%%%...............====================&&&&&.....%%%%%                    ",
"                         %%%%%,,,,,,,,,,...................................%%%%%                    ",
"                         %%%%%,,,,,,,,,,...................................%%%%%                    ",
"                         %%%%%,,,,,,,,,,...................................%%%%%                    ",
"                         %%%%%,,,,,,,,,,...................................%%%%%                    ",
"                         %%%%%,,,,,,,,,,...................................%%%%%                    ",
"                         %%%%%,,,,,,,,,,333332222255555333332222255555%%%%%                         ",
"                         %%%%%,,,,,,,,,,333332222255555333332222255555%%%%%                         ",
"                         %%%%%,,,,,,,,,,333332222255555333332222255555%%%%%                         ",
"                         %%%%%,,,,,,,,,,333332222255555333332222255555%%%%%                         ",
"                         %%%%%,,,,,,,,,,333332222255555333332222255555%%%%%                         ",
"                              %%%%%,,,,,333331111122222333331111122222%%%%%                         ",
"                              %%%%%,,,,,333331111122222333331111122222%%%%%                         ",
"                              %%%%%,,,,,333331111122222333331111122222%%%%%                         ",
"                              %%%%%,,,,,333331111122222333331111122222%%%%%                         ",
"                              %%%%%,,,,,333331111122222333331111122222%%%%%                         ",
"                              %%%%%,,,,,3333333333333333333333333%%%%%                              ",
"                              %%%%%,,,,,3333333333333333333333333%%%%%                              ",
"                              %%%%%,,,,,3333333333333333333333333%%%%%                              ",
"                              %%%%%,,,,,3333333333333333333333333%%%%%                              ",
"                              %%%%%,,,,,3333333333333333333333333%%%%%                              ",
"                              %%%%%,,,,,,,,,,33333333333333333333%%%%%                              ",
"                              %%%%%,,,,,,,,,,33333333333333333333%%%%%                              ",
"                              %%%%%,,,,,,,,,,33333333333333333333%%%%%                              ",
"                              %%%%%,,,,,,,,,,33333333333333333333%%%%%                              ",
"                              %%%%%,,,,,,,,,,33333333333333333333%%%%%                              ",
"                         %%%%%%%%%%,,,,,,,,,,,,,,,33333%%%%%%%%%%                    %%%%%          ",
"                         %%%%%%%%%%,,,,,,,,,,,,,,,33333%%%%%%%%%%                    %%%%%          ",
"                         %%%%%%%%%%,,,,,,,,,,,,,,,33333%%%%%%%%%%                    %%%%%          ",
"                         %%%%%%%%%%,,,,,,,,,,,,,,,33333%%%%%%%%%%                    %%%%%          ",
"                         %%%%%%%%%%,,,,,,,,,,,,,,,33333%%%%%%%%%%                    %%%%%          ",
"                    %%%%%.....11111..............................%%%%%%%%%%%%%%%%%%%%.....%%%%%     ",
"                    %%%%%.....11111..............................%%%%%%%%%%%%%%%%%%%%.....%%%%%     ",
"                    %%%%%.....11111..............................%%%%%%%%%%%%%%%%%%%%.....%%%%%     ",
"                    %%%%%.....11111..............................%%%%%%%%%%%%%%%%%%%%.....%%%%%     ",
"                    %%%%%.....11111..............................%%%%%%%%%%%%%%%%%%%%.....%%%%%     ",
"               %%%%%11111..........444444444444444444444444444444....................#####.....%%%%%",
"               %%%%%11111..........444444444444444444444444444444....................#####.....%%%%%",
"               %%%%%11111..........444444444444444444444444444444....................#####.....%%%%%",
"               %%%%%11111..........444444444444444444444444444444....................#####.....%%%%%",
"               %%%%%11111..........444444444444444444444444444444....................#####.....%%%%%",
"               %%%%%11111.....<<<<<.....@@@@@@@@@@@@@@@@@@@@.....11111%%%%%%%%%%%%%%%%%%%%%%%%%     ",
"               %%%%%11111.....<<<<<.....@@@@@@@@@@@@@@@@@@@@.....11111%%%%%%%%%%%%%%%%%%%%%%%%%     ",
"               %%%%%11111.....<<<<<.....@@@@@@@@@@@@@@@@@@@@.....11111%%%%%%%%%%%%%%%%%%%%%%%%%     ",
"               %%%%%11111.....<<<<<.....@@@@@@@@@@@@@@@@@@@@.....11111%%%%%%%%%%%%%%%%%%%%%%%%%     ",
"               %%%%%11111.....<<<<<.....@@@@@@@@@@@@@@@@@@@@.....11111%%%%%%%%%%%%%%%%%%%%%%%%%     ",
"               %%%%%<<<<<<<<<<++++++++++....................111111111111111%%%%%                    ",
"               %%%%%<<<<<<<<<<++++++++++....................111111111111111%%%%%                    ",
"               %%%%%<<<<<<<<<<++++++++++....................111111111111111%%%%%                    ",
"               %%%%%<<<<<<<<<<++++++++++....................111111111111111%%%%%                    ",
"               %%%%%<<<<<<<<<<++++++++++....................111111111111111%%%%%                    ",
"                    %%%%%+++++++++++++++.....++++++++++<<<<<<<<<<11111%%%%%                         ",
"                    %%%%%+++++++++++++++.....++++++++++<<<<<<<<<<11111%%%%%                         ",
"                    %%%%%+++++++++++++++.....++++++++++<<<<<<<<<<11111%%%%%                         ",
"                    %%%%%+++++++++++++++.....++++++++++<<<<<<<<<<11111%%%%%                         ",
"                    %%%%%+++++++++++++++.....++++++++++<<<<<<<<<<11111%%%%%                         ",
"                    %%%%%+++++..........++++++++++++++++++++...............%%%%%                    ",
"                    %%%%%+++++..........++++++++++++++++++++...............%%%%%                    ",
"                    %%%%%+++++..........++++++++++++++++++++...............%%%%%                    ",
"                    %%%%%+++++..........++++++++++++++++++++...............%%%%%                    ",
"                    %%%%%+++++..........++++++++++++++++++++...............%%%%%                    ",
"                    %%%%%.....$$$$$$$$$$.....%%%%%%%%%%.....$$$$$$$$$$$$$$$.....%%%%%               ",
"                    %%%%%.....$$$$$$$$$$.....%%%%%%%%%%.....$$$$$$$$$$$$$$$.....%%%%%               ",
"                    %%%%%.....$$$$$$$$$$.....%%%%%%%%%%.....$$$$$$$$$$$$$$$.....%%%%%               ",
"                    %%%%%.....$$$$$$$$$$.....%%%%%%%%%%.....$$$$$$$$$$$$$$$.....%%%%%               ",
"                    %%%%%.....$$$$$$$$$$.....%%%%%%%%%%.....$$$$$$$$$$$$$$$.....%%%%%               "
};
