/* XPM */
static char *first_guy[] = {
/* columns rows colors chars-per-pixel */
"20 20 23 1 ",
"  c None",
". c black",
"X c #020804",
"o c #0C0806",
"O c #092C13",
"+ c #465C78",
"@ c gray50",
"# c #880015",
"$ c #82563D",
"% c #FF7F27",
"& c #B87957",
"* c #B97A56",
"= c #B97A57",
"- c #23B14B",
"; c #22B14C",
": c #B5E61D",
"> c #9C8E76",
", c #577294",
"< c #7092BE",
"1 c #00A2E8",
"2 c #EFE4B0",
"3 c #C3C3C3",
"4 c white",
/* pixels */
"                    ",
"                    ",
"      %%%%%         ",
"     %.X.O@%%       ",
"    %.;;-::@@%      ",
"    %.;;;...o@%     ",
"     %...&&&&&.%    ",
"     %>>.......%    ",
"     %>>214214%     ",
"      %>2<12<1%     ",
"      %>22222%      ",
"      %>>2222%      ",
"     %%>>>2%%    %  ",
"    %.<......%%%%.% ",
"   %<..333333....#.%",
"   %<.,.@@@@.<%%%%% ",
"   %,,++....<<<%    ",
"    %+++.++,,<%     ",
"    %+..++++...%    ",
"    %.$$.%%.$$$.%   "
};
